# Blender v3.0.0 OBJ File: 'dungeon_tiles.blend'
# www.blender.org
mtllib dungeon_tile_t.mtl
o Room_T_Cube.005
v 1.000000 0.149805 -3.000000
v 1.000000 0.000000 -3.000000
v 1.000000 0.149805 1.000000
v 1.000000 0.000000 1.000000
v -2.486411 0.149805 -3.000000
v -2.496912 0.000000 -3.000000
v -1.000000 0.149805 1.000000
v -1.000000 0.000000 1.000000
v 0.904453 0.149805 0.904453
v -0.904453 0.149805 0.904453
v 0.904453 0.149805 -2.904453
v -2.390864 0.149805 -2.904453
v -1.000000 0.000000 0.100000
v -1.000000 0.149805 -0.021979
v 1.000000 0.000000 -1.900000
v 0.904453 0.149805 -1.900000
v -0.904453 0.149805 -0.021979
v -1.893038 0.000000 -3.000000
v 0.100000 0.149805 1.000000
v 0.100000 0.000000 1.000000
v -1.882537 0.149805 -3.000000
v 0.100000 0.149805 0.904453
v -1.882537 0.149805 -2.904453
v 0.100000 0.149805 -0.900000
v 0.000000 0.032170 -0.710595
v 1.000000 0.000000 -2.100000
v -1.000000 0.000000 -0.100000
v 0.904453 0.149805 -2.100000
v 0.000000 0.032170 -1.210595
v 0.100000 0.149805 -1.100000
v -2.093721 0.000000 -3.000000
v -0.100000 0.149805 1.000000
v -0.099488 0.149805 0.904453
v -0.235541 0.032170 -0.710595
v -0.100683 0.000000 1.000000
v -2.083220 0.149805 -3.000000
v -2.082025 0.149805 -2.904453
v -0.099488 0.149805 -0.900000
v -0.235541 0.032170 -1.210595
v -0.099488 0.149805 -1.100000
v -1.000000 0.534135 1.000000
v 1.000000 0.534135 1.000000
v -2.486411 0.534135 -3.000000
v 1.000000 0.534135 -3.000000
v -0.904453 0.534135 0.904453
v 0.904453 0.534135 0.904453
v -2.390864 0.534135 -2.904453
v 0.904453 0.534135 -2.904453
v -0.100000 0.434834 1.000000
v -0.199303 0.534135 1.000000
v -1.000000 0.534985 -0.021979
v -1.000000 0.534135 -0.199301
v -1.882537 0.434834 -3.000000
v -1.783236 0.534135 -3.000000
v -0.198790 0.534135 0.904453
v -0.099488 0.434834 0.904453
v -0.904453 0.534135 -0.199301
v -0.904453 0.536266 -0.021979
v -1.783236 0.534135 -2.904453
v -1.882537 0.434834 -2.904453
v -1.000000 0.534135 0.199301
v -0.904453 0.534135 0.199301
v 0.199301 0.534135 1.000000
v 0.100000 0.434834 1.000000
v 0.100000 0.434834 0.904453
v 0.199301 0.534135 0.904453
v -2.182529 0.534135 -3.000000
v -2.083220 0.434834 -3.000000
v -2.082025 0.434834 -2.904453
v -2.181334 0.534135 -2.904453
v 1.000000 0.074903 1.000000
v 1.000000 0.149805 -1.000067
v 1.000000 0.000000 -1.000000
v 1.000000 0.074903 -1.000000
v 1.000000 0.534135 -0.999839
v 1.000000 0.000000 -1.098376
v 1.000000 0.000000 -2.904500
v 0.904453 0.534135 -1.090330
v 0.904453 0.149805 -1.075883
v 0.904453 0.149805 -1.086224
v 3.000000 0.149805 -3.000000
v 3.000000 0.000000 -3.000000
v 3.000000 0.000000 -2.904500
v 3.000000 0.149805 -2.100000
v 3.000000 0.149805 -1.900000
v 3.000000 0.000000 -1.098376
v 3.000000 0.000000 -1.900000
v 2.904453 0.149805 -2.100000
v 2.904453 0.149805 -1.900000
v 3.000000 0.074903 -1.900000
v 3.000000 0.000000 -2.100000
v 3.000000 0.149805 -2.904500
v 2.904453 0.149805 -2.904453
v 3.000000 0.534135 -3.000000
v 2.904453 0.534135 -2.904453
v 3.000000 0.534135 -1.800699
v 3.000000 0.434834 -1.900000
v 2.904453 0.434834 -1.900000
v 2.904453 0.534135 -1.800699
v 3.000000 0.434834 -2.100000
v 3.000000 0.534135 -2.199301
v 2.904453 0.534135 -2.199301
v 2.904453 0.434834 -2.100000
v 3.000000 0.534135 -1.091138
v 3.000000 0.534135 -2.904500
v 3.000000 0.149805 -1.095180
v 3.000000 0.149805 -1.000067
v 3.000000 0.074903 -1.097306
v 3.000000 0.074903 -1.000000
v 3.000000 0.000000 -1.000000
v 3.000000 0.534135 -0.999839
v 2.904453 0.534135 -1.088625
v 2.904453 0.534135 -1.090334
v 2.904453 0.149805 -1.075883
v 2.904453 0.149805 -1.086224
v -1.000000 0.000000 -2.904500
v -1.000000 0.149805 -1.000000
v -1.000000 0.000000 -1.090330
v -1.000000 0.000000 -1.000000
v -0.904453 0.534135 -1.090191
v -1.000000 0.534135 -1.000000
v -0.904453 0.149805 -1.064998
v -0.904453 0.149805 -1.069630
v -3.000000 0.149805 -3.000000
v -3.000000 0.000000 -3.000000
v -3.000000 0.149805 -2.904500
v -2.904453 0.149805 -1.069630
v -2.904453 0.149805 -2.904453
v -2.904453 0.534135 -2.904453
v -3.000000 0.534135 -3.000000
v -3.000000 0.534135 -2.904500
v -2.904453 0.534135 -1.090330
v -3.000000 0.149805 -1.090330
v -3.000000 0.000000 -2.904500
v -3.000000 0.534135 -1.090330
v -3.000000 0.149805 -1.000000
v -3.000000 0.000000 -1.090330
v -3.000000 0.000000 -1.000000
v -2.904453 0.534135 -1.090191
v -3.000000 0.534135 -1.000000
v -2.904453 0.149805 -1.064998
vt 0.625000 0.312500
vt 0.625000 0.250000
vt 0.625000 0.250000
vt 0.625000 0.305598
vt 0.625000 0.312500
vt 0.375000 0.937500
vt 0.625000 0.937500
vt 0.625000 1.000000
vt 0.375000 1.000000
vt 0.375000 0.187500
vt 0.625000 0.187500
vt 0.625000 0.207163
vt 0.375000 0.207109
vt 0.250000 0.625000
vt 0.375000 0.625000
vt 0.375000 0.685409
vt 0.375000 0.687500
vt 0.375000 0.750000
vt 0.250000 0.750000
vt 0.500000 0.687500
vt 0.625000 0.687500
vt 0.625000 0.750000
vt 0.500000 0.750000
vt 0.375000 0.375000
vt 0.625000 0.375000
vt 0.625000 0.500000
vt 0.375000 0.500000
vt 0.903192 0.951172
vt 0.950915 0.951172
vt 0.950915 0.983109
vt 0.903192 0.983109
vt 0.625000 0.111208
vt 0.625000 0.000000
vt 0.625000 0.000000
vt 0.625000 0.109570
vt 0.875000 0.750000
vt 0.875000 0.625000
vt 0.875000 0.625000
vt 0.875000 0.640430
vt 0.875000 0.750000
vt 0.903192 0.935203
vt 0.250000 0.562500
vt 0.375000 0.562500
vt 0.375000 0.000000
vt 0.625000 0.000000
vt 0.625000 0.125000
vt 0.375000 0.125000
vt 0.625000 0.250000
vt 0.625000 0.250000
vt 0.187500 0.562500
vt 0.187500 0.625000
vt 0.760023 0.935203
vt 0.855469 0.935203
vt 0.855469 0.951172
vt 0.760023 0.951172
vt 0.789062 0.937500
vt 0.789062 0.875000
vt 0.789062 0.875000
vt 0.789062 0.937500
vt 0.875000 0.500000
vt 0.812500 0.500000
vt 0.812500 0.500000
vt 0.820211 0.500000
vt 0.875000 0.500000
vt 0.855469 0.983109
vt 0.760023 0.983109
vt 0.760023 0.961506
vt 0.760023 0.960557
vt 0.375000 0.312500
vt 0.187500 0.750000
vt 0.625000 0.875000
vt 0.375000 0.875000
vt 0.760023 0.919234
vt 0.855469 0.919234
vt 0.187500 0.500000
vt 0.250000 0.500000
vt 0.375000 0.506015
vt 0.903192 0.919234
vt 0.950915 0.919234
vt 0.950915 0.929682
vt 0.950915 0.930222
vt 0.950915 0.935203
vt 0.750000 0.500000
vt 0.625000 0.500000
vt 0.625000 0.500000
vt 0.734570 0.500000
vt 0.750000 0.500000
vt 0.125000 0.500000
vt 0.125000 0.541073
vt 0.125000 0.501835
vt 0.125000 0.625000
vt 0.125000 0.750000
vt 0.375000 0.250000
vt 0.125000 0.562500
vt 0.814453 0.941406
vt 0.814453 0.878906
vt 0.814453 0.878906
vt 0.814453 0.941406
vt 0.625000 0.661733
vt 0.625000 0.665445
vt 0.625000 0.665445
vt 0.625000 0.661733
vt 0.625000 0.312500
vt 0.625000 0.312500
vt 0.625000 0.875000
vt 0.625000 0.875000
vt 0.625000 0.875000
vt 0.760023 0.951172
vt 0.760023 0.935203
vt 0.625000 0.375000
vt 0.625000 0.375000
vt 0.625000 0.375000
vt 0.625000 0.187500
vt 0.625000 0.187500
vt 0.625000 0.187500
vt 0.625000 0.937500
vt 0.625000 0.937500
vt 0.625000 0.937500
vt 0.625000 0.670594
vt 0.625000 0.750000
vt 0.125000 0.542891
vt 0.125000 0.542891
vt 0.125000 0.541073
vt 0.625000 0.388792
vt 0.625000 0.500000
vt 0.625000 0.250000
vt 0.625000 0.304789
vt 0.625000 0.390430
vt 0.625000 0.861208
vt 0.625000 0.750000
vt 0.625000 0.859570
vt 0.375000 0.687500
vt 0.500000 0.687500
vt 0.625000 0.125000
vt 0.625000 0.672995
vt 0.625000 0.500000
vt 0.625000 0.500000
vt 0.625000 0.750000
vt 0.750000 0.750000
vt 0.750000 0.750000
vt 0.734570 0.750000
vt 0.875000 0.562500
vt 0.875000 0.543004
vt 0.875000 0.538051
vt 0.875000 0.554785
vt 0.875000 0.562500
vt 0.812500 0.750000
vt 0.820210 0.750000
vt 0.812500 0.750000
vt 0.625000 1.000000
vt 0.625000 0.944396
vt 0.625000 0.945210
vt 0.625000 1.000000
vt 0.625000 0.125000
vt 0.760023 0.919234
vt 0.625000 0.195215
vt 0.625000 0.194396
vt 0.375000 0.625000
vt 0.375000 0.685409
vt 0.760023 0.960557
vt 0.625000 0.670595
vt 0.625000 0.672995
vt 0.375000 0.500000
vt 0.375000 0.506015
vt 0.375000 0.562500
vt 0.625000 0.687500
vt 0.625000 0.500000
vt 0.625000 0.500000
vt 0.625000 0.562500
vt 0.625000 0.562500
vt 0.625000 0.554785
vt 0.625000 0.562500
vt 0.625000 0.625000
vt 0.500000 0.625000
vt 0.625000 0.504059
vt 0.837891 0.894531
vt 0.837891 0.832031
vt 0.837891 0.832031
vt 0.837891 0.894531
vt 0.625000 0.555604
vt 0.625000 0.506617
vt 0.625000 0.562500
vt 0.625000 0.625000
vt 0.625000 0.625000
vt 0.625000 0.625000
vt 0.625000 0.669272
vt 0.625000 0.640430
vt 0.625000 0.638792
vt 0.500000 0.685242
vt 0.625000 0.684891
vt 0.625000 0.669254
vt 0.625000 0.207163
vt 0.375000 0.207109
vt 0.125000 0.501835
vt 0.125000 0.500000
vt 0.875000 0.543004
vt 0.875000 0.538051
vt 0.625000 0.211949
vt 0.625000 0.210951
vt 0.875000 0.500000
vt 0.875000 0.500000
vt 0.625000 0.211949
vt 0.625000 0.210951
vt 0.950915 0.919234
vt 0.950915 0.929682
vt 0.375000 0.250000
vt 0.625000 0.248178
vt 0.625000 0.247948
vt 0.625000 0.250000
vt 0.625000 0.212294
vt 0.625000 0.213463
vt 0.375000 0.248165
vt 0.625000 0.209079
vt 0.375000 0.208927
vt 0.875000 0.540891
vt 0.875000 0.536537
vt 0.875000 0.540891
vn -0.0000 0.0000 -1.0000
vn 0.0000 0.0000 1.0000
vn -1.0000 0.0000 0.0000
vn -0.0210 -0.9998 -0.0065
vn 1.0000 0.0000 0.0000
vn 0.0000 1.0000 0.0000
vn -0.0322 -0.9995 0.0000
vn 0.0000 -1.0000 0.0000
vn 0.0000 -0.9998 -0.0188
vn 0.0000 -0.9998 0.0180
vn -0.0048 -0.9999 0.0153
vn 0.1700 0.9806 -0.0974
vn 0.0130 -0.9998 -0.0130
vn 0.0420 -0.9991 0.0000
vn 0.9999 0.0000 -0.0125
vn 1.0000 0.0000 0.0054
vn -0.0067 1.0000 0.0067
vn -0.7071 0.7071 0.0000
vn -0.0067 0.9999 -0.0084
vn 0.7071 0.7071 0.0038
vn 0.7071 0.7071 -0.0088
vn 0.0000 -0.0006 1.0000
vn -0.0000 -0.0107 -0.9999
vn 0.0000 0.0009 1.0000
vn 0.0000 0.7071 -0.7071
vn 0.0000 0.7071 0.7071
vn 0.0000 -0.0654 -0.9979
usemtl Material
s off
f 36/1/1 5/2/1 43/3/1 67/4/1 68/5/1
f 35/6/2 32/7/2 7/8/2 8/9/2
f 27/10/3 14/11/3 117/12/3 119/13/3
f 25/14/4 15/15/4 76/16/4 73/17/4 4/18/4 20/19/4
f 74/20/5 72/21/5 3/22/5 71/23/5
f 18/24/1 21/25/1 1/26/1 2/27/1
f 38/28/6 17/29/6 10/30/6 33/31/6
f 61/32/6 41/33/6 45/34/6 62/35/6
f 10/36/5 17/37/5 58/38/5 62/39/5 45/40/5
f 40/41/6 17/29/6 38/28/6
f 29/42/7 26/43/7 15/15/7 25/14/7
f 8/44/3 7/45/3 14/46/3 13/47/3
f 43/3/1 5/2/1 124/48/1 130/49/1
f 39/50/8 29/42/8 25/14/8 34/51/8
f 28/52/6 30/53/6 24/54/6 16/55/6
f 32/56/6 19/57/6 22/58/6 33/59/6
f 12/60/2 37/61/2 69/62/2 70/63/2 47/64/2
f 16/55/6 24/54/6 22/65/6 9/66/6 80/67/6 79/68/6
f 31/69/1 36/1/1 21/25/1 18/24/1
f 34/51/9 25/14/9 20/19/9 35/70/9
f 4/18/2 71/23/2 3/22/2 19/71/2 20/72/2
f 11/73/6 23/74/6 30/53/6 28/52/6
f 31/75/10 18/76/10 29/42/10 39/50/10
f 18/76/11 2/27/11 77/77/11 26/43/11 29/42/11
f 37/78/6 12/79/6 123/80/6 122/81/6 17/82/6 40/41/6
f 23/83/2 11/84/2 48/85/2 59/86/2 60/87/2
f 13/47/3 14/11/3 27/10/3
f 23/74/6 37/78/6 40/41/6 30/53/6
f 6/88/12 31/75/12 39/50/12 118/89/12 116/90/12
f 13/91/13 34/51/13 35/70/13 8/92/13
f 6/93/1 5/2/1 36/1/1 31/69/1
f 27/94/14 39/50/14 34/51/14 13/91/14
f 30/53/6 40/41/6 38/28/6 24/54/6
f 21/95/6 36/96/6 37/97/6 23/98/6
f 24/54/6 38/28/6 33/31/6 22/65/6
f 20/72/2 19/71/2 32/7/2 35/6/2
f 79/99/8 80/100/8 115/101/8 114/102/8
f 37/103/15 36/1/15 68/5/15 69/104/15
f 22/105/3 19/71/3 64/106/3 65/107/3
f 28/52/6 16/55/6 89/108/6 88/109/6
f 21/25/3 23/110/3 60/111/3 53/112/3
f 14/11/2 17/113/2 58/114/2 51/115/2
f 32/7/16 33/116/16 56/117/16 49/118/16
f 3/22/5 72/21/5 75/119/5 42/120/5
f 118/89/8 119/121/8 138/122/8 137/123/8
f 1/26/1 21/25/1 53/112/1 54/124/1 44/125/1
f 67/4/6 43/3/6 47/126/6 70/127/6
f 44/125/6 54/124/6 59/128/6 48/85/6
f 19/71/2 3/22/2 42/120/2 63/129/2 64/106/2
f 63/129/6 42/120/6 46/130/6 66/131/6
f 74/20/2 73/17/2 110/132/2 109/133/2
f 14/46/3 7/45/3 41/33/3 61/32/3 51/134/3
f 42/120/6 75/119/6 78/135/6 46/130/6
f 1/26/1 44/125/1 94/136/1 81/137/1
f 9/138/1 22/139/1 65/140/1 66/141/1 46/130/1
f 17/142/5 122/143/5 120/144/5 57/145/5 58/146/5
f 33/147/1 10/36/1 45/40/1 55/148/1 56/149/1
f 41/150/6 50/151/6 55/152/6 45/153/6
f 61/32/17 62/35/17 58/154/17 51/134/17
f 11/73/6 28/52/6 88/109/6 93/155/6
f 63/129/18 66/131/18 65/107/18 64/106/18
f 53/112/18 60/111/18 59/128/18 54/124/18
f 51/115/19 58/114/19 57/156/19 52/157/19
f 76/16/8 15/15/8 87/158/8 86/159/8
f 49/118/20 56/117/20 55/152/20 50/151/20
f 67/4/21 70/127/21 69/104/21 68/5/21
f 7/8/2 32/7/2 49/118/2 50/151/2 41/150/2
f 73/17/5 74/20/5 71/23/5 4/18/5
f 16/55/6 79/68/6 114/160/6 89/108/6
f 78/135/6 75/119/6 111/161/6 113/162/6
f 77/77/8 2/27/8 82/163/8 83/164/8
f 73/17/8 76/16/8 86/159/8 110/132/8
f 26/43/8 77/77/8 83/164/8 91/165/8
f 15/15/8 26/43/8 91/165/8 87/158/8
f 75/119/22 72/21/22 107/166/22 111/161/22
f 2/27/1 1/26/1 81/137/1 82/163/1
f 80/100/23 78/135/23 113/162/23 115/101/23
f 44/125/6 48/85/6 95/167/6 94/136/6
f 72/21/24 74/20/24 109/133/24 107/166/24
f 48/85/2 11/84/2 93/168/2 95/167/2
f 78/135/3 80/100/3 9/138/3 46/130/3
f 93/168/3 88/169/3 103/170/3 102/171/3 95/167/3
f 91/165/5 84/172/5 85/173/5 90/174/5 87/158/5
f 82/163/5 81/137/5 92/175/5 83/164/5
f 85/176/6 84/177/6 88/178/6 89/179/6
f 101/180/6 105/181/6 95/167/6 102/171/6
f 88/169/2 84/172/2 100/182/2 103/170/2
f 85/173/1 89/183/1 98/184/1 97/185/1
f 84/172/5 92/175/5 105/181/5 101/180/5 100/182/5
f 89/183/3 114/102/3 112/186/3 99/187/3 98/184/3
f 97/185/25 98/184/25 99/187/25 96/188/25
f 101/180/26 102/171/26 103/170/26 100/182/26
f 87/158/5 90/174/5 108/189/5 86/159/5
f 90/174/5 85/173/5 106/190/5 108/189/5
f 111/161/5 107/166/5 106/190/5 104/191/5
f 104/191/5 106/190/5 85/173/5 97/185/5 96/188/5
f 86/159/5 108/189/5 109/133/5 110/132/5
f 108/189/5 106/190/5 107/166/5 109/133/5
f 83/164/5 92/175/5 84/172/5 91/165/5
f 95/167/6 105/181/6 94/136/6
f 105/181/5 92/175/5 81/137/5 94/136/5
f 112/186/6 104/191/6 96/188/6 99/187/6
f 113/162/6 111/161/6 104/191/6 112/186/6
f 112/186/5 114/102/5 115/101/5 113/162/5
f 119/13/2 117/12/2 136/192/2 138/193/2
f 6/88/8 116/90/8 134/194/8 125/195/8
f 120/144/27 122/143/27 141/196/27 139/197/27
f 116/90/8 118/89/8 137/123/8 134/194/8
f 120/198/6 121/199/6 52/157/6 57/156/6
f 12/60/2 47/64/2 129/200/2 128/201/2
f 121/199/6 120/198/6 139/202/6 140/203/6
f 123/80/6 12/79/6 128/204/6 127/205/6
f 121/199/3 117/12/3 14/11/3 51/115/3 52/157/3
f 118/89/14 39/50/14 119/121/14
f 119/121/14 39/50/14 27/94/14
f 5/2/1 6/93/1 125/206/1 124/48/1
f 117/12/2 121/199/2 140/203/2 136/192/2
f 124/48/3 126/207/3 131/208/3 130/49/3
f 130/49/6 131/208/6 129/209/6
f 129/209/6 131/208/6 135/210/6 132/211/6
f 134/212/3 126/207/3 124/48/3 125/206/3
f 131/208/3 126/207/3 133/213/3 135/210/3
f 132/211/6 135/210/6 140/203/6 139/202/6
f 138/193/3 136/192/3 133/213/3 137/214/3
f 137/214/3 133/213/3 126/207/3 134/212/3
f 135/210/3 133/213/3 136/192/3 140/203/3
f 139/197/5 141/196/5 127/215/5 132/216/5
f 132/216/5 127/215/5 128/201/5 129/200/5
f 122/143/6 123/217/6 127/215/6 141/196/6
f 47/126/6 43/3/6 130/49/6 129/209/6
