# Blender v3.0.0 OBJ File: 'dungeon_tiles.blend'
# www.blender.org
mtllib dungeon_tile_small_l.mtl
o Room_SmallL_Cube.003
v 1.000000 0.149805 -3.000000
v 1.000000 0.000000 -3.000000
v 1.000000 0.149805 1.000000
v 1.000000 0.000000 1.000000
v -1.000000 0.149805 -3.000000
v -1.000000 0.000000 -3.000000
v -1.000000 0.149805 1.000000
v -1.000000 0.000000 1.000000
v 0.904453 0.149805 0.904453
v -0.904453 0.149805 0.904453
v 0.904453 0.149805 -2.904453
v -0.904453 0.149805 -2.904453
v -1.000000 0.000000 0.100000
v -1.000000 0.149805 0.100000
v 1.000000 0.000000 -1.900000
v 0.904453 0.149805 -1.900000
v -0.904453 0.149805 0.100000
v 0.100000 0.000000 -3.000000
v 0.100000 0.149805 1.000000
v 0.100000 0.000000 1.000000
v 0.100000 0.149805 -3.000000
v 0.100000 0.149805 0.904453
v 0.100000 0.149805 -2.904453
v 0.100000 0.149805 -0.900000
v 0.000000 0.032170 -0.710595
v -1.000000 0.149805 -0.100000
v 1.000000 0.000000 -2.100000
v -0.904453 0.149805 -0.100000
v -1.000000 0.000000 -0.100000
v 0.904453 0.149805 -2.100000
v 0.000000 0.032170 -1.210595
v 0.100000 0.149805 -1.100000
v -0.100683 0.000000 -3.000000
v -0.100000 0.149805 1.000000
v -0.099488 0.149805 0.904453
v -0.235541 0.032170 -0.710595
v -0.100683 0.000000 1.000000
v -0.100683 0.149805 -3.000000
v -0.099488 0.149805 -2.904453
v -0.099488 0.149805 -0.900000
v -0.235541 0.032170 -1.210595
v -0.099488 0.149805 -1.100000
v -1.000000 0.534135 1.000000
v 1.000000 0.534135 1.000000
v -1.000000 0.534135 -3.000000
v 1.000000 0.534135 -3.000000
v -0.904453 0.534135 0.904453
v 0.904453 0.534135 0.904453
v -0.904453 0.534135 -2.904453
v 0.904453 0.534135 -2.904453
v -0.100000 0.434834 1.000000
v -0.199303 0.534135 1.000000
v -1.000000 0.434834 -0.100000
v -1.000000 0.534135 -0.199301
v 0.100000 0.434834 -3.000000
v 0.199301 0.534135 -3.000000
v -0.198790 0.534135 0.904453
v -0.099488 0.434834 0.904453
v -0.904453 0.534135 -0.199301
v -0.904453 0.434834 -0.100000
v 0.199301 0.534135 -2.904453
v 0.100000 0.434834 -2.904453
v -1.000000 0.534135 0.199301
v -1.000000 0.434834 0.100000
v -0.904453 0.434834 0.100000
v -0.904453 0.534135 0.199301
v 0.199301 0.534135 1.000000
v 0.100000 0.434834 1.000000
v 0.100000 0.434834 0.904453
v 0.199301 0.534135 0.904453
v -0.199992 0.534135 -3.000000
v -0.100683 0.434834 -3.000000
v -0.099488 0.434834 -2.904453
v -0.198797 0.534135 -2.904453
v 1.000000 0.074903 1.000000
v 1.000000 0.149805 -1.000067
v 1.000000 0.000000 -1.000000
v 1.000000 0.074903 -1.000000
v 1.000000 0.534135 -0.999839
v 1.000000 0.000000 -1.098376
v 1.000000 0.000000 -2.904500
v 0.904453 0.534135 -1.090334
v 0.904453 0.149805 -1.075883
v 0.904453 0.149805 -1.086224
v 3.000000 0.149805 -3.000000
v 3.000000 0.000000 -3.000000
v 3.000000 0.000000 -2.904500
v 3.000000 0.149805 -2.100000
v 3.000000 0.149805 -1.900000
v 3.000000 0.000000 -1.098376
v 3.000000 0.000000 -1.900000
v 2.904453 0.149805 -2.100000
v 2.904453 0.149805 -1.900000
v 3.000000 0.074903 -1.900000
v 3.000000 0.000000 -2.100000
v 3.000000 0.149805 -2.904500
v 2.904453 0.149805 -2.904453
v 3.000000 0.534135 -3.000000
v 2.904453 0.534135 -2.904453
v 3.000000 0.534135 -1.800699
v 3.000000 0.434834 -1.900000
v 2.904453 0.434834 -1.900000
v 2.904453 0.534135 -1.800699
v 3.000000 0.434834 -2.100000
v 3.000000 0.534135 -2.199301
v 2.904453 0.534135 -2.199301
v 2.904453 0.434834 -2.100000
v 3.000000 0.534135 -1.091138
v 3.000000 0.534135 -2.904500
v 3.000000 0.149805 -1.095180
v 3.000000 0.149805 -1.000067
v 3.000000 0.074903 -1.097306
v 3.000000 0.074903 -1.000000
v 3.000000 0.000000 -1.000000
v 3.000000 0.534135 -0.999839
v 2.904453 0.534135 -1.088625
v 2.904453 0.534135 -1.090334
v 2.904453 0.149805 -1.075883
v 2.904453 0.149805 -1.086224
vt 0.416617 0.449363
vt 0.416617 0.404420
vt 0.416617 0.404420
vt 0.416617 0.444400
vt 0.416617 0.449363
vt 0.236843 0.898798
vt 0.416617 0.898798
vt 0.416617 0.943741
vt 0.236843 0.943741
vt 0.236843 0.359476
vt 0.416617 0.359476
vt 0.236843 0.404420
vt 0.146956 0.674081
vt 0.236843 0.674081
vt 0.236843 0.717520
vt 0.236843 0.719024
vt 0.236843 0.763968
vt 0.146956 0.763968
vt 0.326730 0.719024
vt 0.416617 0.719024
vt 0.416617 0.763968
vt 0.326730 0.763968
vt 0.236843 0.494307
vt 0.416617 0.494307
vt 0.416617 0.584194
vt 0.236843 0.584194
vt 0.749555 0.308191
vt 0.811924 0.308191
vt 0.811924 0.432929
vt 0.749555 0.432929
vt 0.416617 0.304615
vt 0.416617 0.224646
vt 0.416617 0.224646
vt 0.416617 0.303437
vt 0.596391 0.763968
vt 0.596391 0.674081
vt 0.596391 0.674081
vt 0.596391 0.685176
vt 0.596391 0.763968
vt 0.697867 0.265726
vt 0.697867 0.220783
vt 0.697867 0.220783
vt 0.697867 0.265726
vt 0.749555 0.245822
vt 0.811924 0.245822
vt 0.146956 0.629137
vt 0.236843 0.629137
vt 0.236843 0.224646
vt 0.416617 0.224646
vt 0.416617 0.314533
vt 0.236843 0.314533
vt 0.416617 0.359476
vt 0.416617 0.364435
vt 0.102013 0.629137
vt 0.102013 0.674081
vt 0.562448 0.245822
vt 0.687186 0.245822
vt 0.687186 0.308191
vt 0.562448 0.308191
vt 0.697867 0.371454
vt 0.697867 0.326511
vt 0.697867 0.326511
vt 0.697867 0.371454
vt 0.596391 0.584194
vt 0.551447 0.584194
vt 0.551447 0.584194
vt 0.556992 0.584194
vt 0.596391 0.584194
vt 0.687186 0.432929
vt 0.562448 0.432929
vt 0.562448 0.348551
vt 0.562448 0.344846
vt 0.236843 0.449363
vt 0.102013 0.763968
vt 0.416617 0.853854
vt 0.236843 0.853854
vt 0.562448 0.183453
vt 0.687186 0.183453
vt 0.102013 0.584194
vt 0.146956 0.584194
vt 0.236843 0.588519
vt 0.749555 0.183453
vt 0.811924 0.183453
vt 0.506504 0.584194
vt 0.416617 0.584194
vt 0.416617 0.584194
vt 0.495408 0.584194
vt 0.506504 0.584194
vt 0.057069 0.584194
vt 0.057069 0.629137
vt 0.057069 0.674081
vt 0.057069 0.763968
vt 0.697867 0.400557
vt 0.697867 0.355613
vt 0.697867 0.355613
vt 0.697867 0.400557
vt 0.416617 0.700495
vt 0.416617 0.703164
vt 0.416617 0.703164
vt 0.416617 0.700495
vt 0.416617 0.449363
vt 0.416617 0.449363
vt 0.416617 0.853854
vt 0.416617 0.853854
vt 0.416617 0.853854
vt 0.416617 0.314533
vt 0.416617 0.314533
vt 0.416617 0.314533
vt 0.562448 0.308191
vt 0.562448 0.245822
vt 0.416617 0.494307
vt 0.416617 0.494307
vt 0.416617 0.494307
vt 0.416617 0.359476
vt 0.416617 0.359476
vt 0.416617 0.898798
vt 0.416617 0.898798
vt 0.416617 0.898798
vt 0.416617 0.706867
vt 0.416617 0.763968
vt 0.416617 0.365024
vt 0.416617 0.404420
vt 0.416617 0.504224
vt 0.416617 0.584194
vt 0.416617 0.443819
vt 0.416617 0.505402
vt 0.416617 0.843937
vt 0.416617 0.763968
vt 0.416617 0.842759
vt 0.236843 0.719024
vt 0.326730 0.719024
vt 0.416617 0.708594
vt 0.416617 0.584194
vt 0.416617 0.584194
vt 0.416617 0.763968
vt 0.506504 0.763968
vt 0.506504 0.763968
vt 0.495408 0.763968
vt 0.596391 0.629137
vt 0.596391 0.623589
vt 0.596391 0.629137
vt 0.551447 0.763968
vt 0.556991 0.763968
vt 0.551447 0.763968
vt 0.416617 0.943741
vt 0.416617 0.903757
vt 0.416617 0.904342
vt 0.416617 0.943741
vt 0.562448 0.183453
vt 0.236843 0.674081
vt 0.236843 0.717520
vt 0.562448 0.344846
vt 0.416617 0.706867
vt 0.416617 0.708594
vt 0.236843 0.584194
vt 0.236843 0.588519
vt 0.236843 0.629137
vt 0.416617 0.719024
vt 0.416617 0.584194
vt 0.416617 0.584194
vt 0.416617 0.629137
vt 0.416617 0.629137
vt 0.416617 0.623589
vt 0.416617 0.629137
vt 0.416617 0.674081
vt 0.326730 0.674081
vt 0.416617 0.587112
vt 0.697867 0.326424
vt 0.697867 0.281481
vt 0.697867 0.281481
vt 0.697867 0.326424
vt 0.416617 0.624178
vt 0.416617 0.588952
vt 0.416617 0.629137
vt 0.416617 0.674081
vt 0.416617 0.674081
vt 0.416617 0.674081
vt 0.416617 0.705916
vt 0.416617 0.685176
vt 0.416617 0.683998
vt 0.326730 0.717401
vt 0.416617 0.717148
vt 0.416617 0.705903
vn -0.0000 0.0000 -1.0000
vn 0.0000 0.0000 1.0000
vn -1.0000 0.0000 0.0000
vn -0.0210 -0.9998 -0.0065
vn 1.0000 0.0000 0.0000
vn 0.0000 1.0000 0.0000
vn -0.0322 -0.9995 0.0000
vn 0.0000 -1.0000 0.0000
vn 0.0000 -0.9998 -0.0188
vn 0.0000 -0.9998 0.0180
vn -0.0115 -0.9999 0.0115
vn 0.0244 -0.9997 0.0076
vn 0.0130 -0.9998 -0.0130
vn 0.0420 -0.9991 0.0000
vn 0.9999 0.0000 -0.0125
vn 1.0000 0.0000 0.0054
vn 0.0000 0.7071 -0.7071
vn -0.7071 0.7071 0.0000
vn 0.0000 0.7071 0.7071
vn 0.7071 0.7071 0.0038
vn 0.7071 0.7071 -0.0088
vn 0.0000 -0.0006 1.0000
vn 0.0000 -0.0107 -0.9999
vn 0.0000 0.0009 1.0000
usemtl Material.005
s off
f 38/1/1 5/2/1 45/3/1 71/4/1 72/5/1
f 37/6/2 34/7/2 7/8/2 8/9/2
f 29/10/3 26/11/3 5/2/3 6/12/3
f 25/13/4 15/14/4 80/15/4 77/16/4 4/17/4 20/18/4
f 78/19/5 76/20/5 3/21/5 75/22/5
f 18/23/1 21/24/1 1/25/1 2/26/1
f 40/27/6 17/28/6 10/29/6 35/30/6
f 63/31/6 43/32/6 47/33/6 66/34/6
f 10/35/5 17/36/5 65/37/5 66/38/5 47/39/5
f 26/40/6 14/41/6 17/42/6 28/43/6
f 42/44/6 28/45/6 17/28/6 40/27/6
f 31/46/7 27/47/7 15/14/7 25/13/7
f 8/48/3 7/49/3 14/50/3 13/51/3
f 5/2/3 26/11/3 53/52/3 54/53/3 45/3/3
f 41/54/8 31/46/8 25/13/8 36/55/8
f 30/56/6 32/57/6 24/58/6 16/59/6
f 34/60/6 19/61/6 22/62/6 35/63/6
f 12/64/2 39/65/2 73/66/2 74/67/2 49/68/2
f 16/59/6 24/58/6 22/69/6 9/70/6 84/71/6 83/72/6
f 33/73/1 38/1/1 21/24/1 18/23/1
f 36/55/9 25/13/9 20/18/9 37/74/9
f 4/17/2 75/22/2 3/21/2 19/75/2 20/76/2
f 11/77/6 23/78/6 32/57/6 30/56/6
f 33/79/10 18/80/10 31/46/10 41/54/10
f 18/80/11 2/26/11 81/81/11 27/47/11 31/46/11
f 39/82/6 12/83/6 28/45/6 42/44/6
f 23/84/2 11/85/2 50/86/2 61/87/2 62/88/2
f 13/51/3 14/50/3 26/11/3 29/10/3
f 23/78/6 39/82/6 42/44/6 32/57/6
f 6/89/12 33/79/12 41/54/12 29/90/12
f 13/91/13 36/55/13 37/74/13 8/92/13
f 6/12/1 5/2/1 38/1/1 33/73/1
f 29/90/14 41/54/14 36/55/14 13/91/14
f 32/57/6 42/44/6 40/27/6 24/58/6
f 21/93/6 38/94/6 39/95/6 23/96/6
f 24/58/6 40/27/6 35/30/6 22/69/6
f 20/76/2 19/75/2 34/7/2 37/6/2
f 83/97/8 84/98/8 119/99/8 118/100/8
f 39/101/15 38/1/15 72/5/15 73/102/15
f 22/103/3 19/75/3 68/104/3 69/105/3
f 17/106/1 14/50/1 64/107/1 65/108/1
f 30/56/6 16/59/6 93/109/6 92/110/6
f 21/24/3 23/111/3 62/112/3 55/113/3
f 26/11/2 28/114/2 60/115/2 53/52/2
f 34/7/16 35/116/16 58/117/16 51/118/16
f 3/21/5 76/20/5 79/119/5 44/120/5
f 45/3/6 54/53/6 59/121/6 49/122/6
f 1/25/1 21/24/1 55/113/1 56/123/1 46/124/1
f 71/4/6 45/3/6 49/122/6 74/125/6
f 46/124/6 56/123/6 61/126/6 50/86/6
f 19/75/2 3/21/2 44/120/2 67/127/2 68/104/2
f 67/127/6 44/120/6 48/128/6 70/129/6
f 78/19/2 77/16/2 114/130/2 113/131/2
f 14/50/3 7/49/3 43/32/3 63/31/3 64/107/3
f 44/120/6 79/119/6 82/132/6 48/128/6
f 1/25/1 46/124/1 98/133/1 85/134/1
f 9/135/1 22/136/1 69/137/1 70/138/1 48/128/1
f 28/139/5 12/64/5 49/68/5 59/140/5 60/141/5
f 35/142/1 10/35/1 47/39/1 57/143/1 58/144/1
f 43/145/6 52/146/6 57/147/6 47/148/6
f 63/31/17 66/34/17 65/108/17 64/107/17
f 11/77/6 30/56/6 92/110/6 97/149/6
f 67/127/18 70/129/18 69/105/18 68/104/18
f 55/113/18 62/112/18 61/126/18 56/123/18
f 53/52/19 60/115/19 59/121/19 54/53/19
f 80/15/8 15/14/8 91/150/8 90/151/8
f 51/118/20 58/117/20 57/147/20 52/146/20
f 71/4/21 74/125/21 73/102/21 72/5/21
f 7/8/2 34/7/2 51/118/2 52/146/2 43/145/2
f 77/16/5 78/19/5 75/22/5 4/17/5
f 16/59/6 83/72/6 118/152/6 93/109/6
f 82/132/6 79/119/6 115/153/6 117/154/6
f 81/81/8 2/26/8 86/155/8 87/156/8
f 77/16/8 80/15/8 90/151/8 114/130/8
f 27/47/8 81/81/8 87/156/8 95/157/8
f 15/14/8 27/47/8 95/157/8 91/150/8
f 79/119/22 76/20/22 111/158/22 115/153/22
f 2/26/1 1/25/1 85/134/1 86/155/1
f 84/98/23 82/132/23 117/154/23 119/99/23
f 46/124/6 50/86/6 99/159/6 98/133/6
f 76/20/24 78/19/24 113/131/24 111/158/24
f 50/86/2 11/85/2 97/160/2 99/159/2
f 82/132/3 84/98/3 9/135/3 48/128/3
f 97/160/3 92/161/3 107/162/3 106/163/3 99/159/3
f 95/157/5 88/164/5 89/165/5 94/166/5 91/150/5
f 86/155/5 85/134/5 96/167/5 87/156/5
f 89/168/6 88/169/6 92/170/6 93/171/6
f 105/172/6 109/173/6 99/159/6 106/163/6
f 92/161/2 88/164/2 104/174/2 107/162/2
f 89/165/1 93/175/1 102/176/1 101/177/1
f 88/164/5 96/167/5 109/173/5 105/172/5 104/174/5
f 93/175/3 118/100/3 116/178/3 103/179/3 102/176/3
f 101/177/17 102/176/17 103/179/17 100/180/17
f 105/172/19 106/163/19 107/162/19 104/174/19
f 91/150/5 94/166/5 112/181/5 90/151/5
f 94/166/5 89/165/5 110/182/5 112/181/5
f 115/153/5 111/158/5 110/182/5 108/183/5
f 108/183/5 110/182/5 89/165/5 101/177/5 100/180/5
f 90/151/5 112/181/5 113/131/5 114/130/5
f 112/181/5 110/182/5 111/158/5 113/131/5
f 87/156/5 96/167/5 88/164/5 95/157/5
f 99/159/6 109/173/6 98/133/6
f 109/173/5 96/167/5 85/134/5 98/133/5
f 116/178/6 108/183/6 100/180/6 103/179/6
f 117/154/6 115/153/6 108/183/6 116/178/6
f 116/178/5 118/100/5 119/99/5 117/154/5
